<svg width="63" height="65" viewBox="0 0 63 65" fill="none" xmlns="http://www.w3.org/2000/svg">
<path d="M61.3655 25.9631H1.13094C0.994555 25.9631 0.859509 25.99 0.733509 26.0422C0.607509 26.0944 0.493023 26.1709 0.396587 26.2673C0.30015 26.3637 0.223653 26.4782 0.171462 26.6042C0.119272 26.7302 0.092409 26.8653 0.092409 27.0017V54.5226C-0.108864 55.9333 0.0210063 57.3715 0.471739 58.7233C0.922473 60.0751 1.68169 61.3034 2.6893 62.311C3.6969 63.3186 4.92523 64.0778 6.27703 64.5286C7.62883 64.9793 9.067 65.1092 10.4777 64.9079H52.0188C53.4295 65.1092 54.8676 64.9793 56.2194 64.5286C57.5712 64.0778 58.7996 63.3186 59.8072 62.311C60.8148 61.3034 61.574 60.0751 62.0247 58.7233C62.4754 57.3715 62.6053 55.9333 62.404 54.5226V27.0017C62.404 26.8653 62.3772 26.7302 62.325 26.6042C62.2728 26.4782 62.1963 26.3637 62.0999 26.2673C62.0034 26.1709 61.8889 26.0944 61.7629 26.0422C61.6369 25.99 61.5019 25.9631 61.3655 25.9631ZM17.4704 54.5226C17.0158 54.5249 16.5652 54.4376 16.1444 54.2657C15.7235 54.0939 15.3406 53.8408 15.0175 53.521C14.3651 52.875 13.996 51.9963 13.9914 51.0782C13.9868 50.1601 14.3471 49.2777 14.9931 48.6253C15.639 47.9728 16.5177 47.6037 17.4358 47.5991H17.4704C18.3885 47.5991 19.2691 47.9638 19.9183 48.613C20.5675 49.2622 20.9322 50.1428 20.9322 51.0609C20.9322 51.979 20.5675 52.8595 19.9183 53.5087C19.2691 54.1579 18.3885 54.5226 17.4704 54.5226ZM17.4704 40.6756C17.0158 40.6779 16.5652 40.5906 16.1444 40.4187C15.7235 40.2468 15.3406 39.9938 15.0175 39.6739C14.3651 39.028 13.996 38.1493 13.9914 37.2312C13.9868 36.313 14.3471 35.4307 14.9931 34.7783C15.639 34.1258 16.5177 33.7567 17.4358 33.7521H17.4704C18.3885 33.7521 19.2691 34.1168 19.9183 34.766C20.5675 35.4152 20.9322 36.2957 20.9322 37.2138C20.9322 38.132 20.5675 39.0125 19.9183 39.6617C19.2691 40.3109 18.3885 40.6756 17.4704 40.6756ZM31.3175 54.5226C30.8629 54.5249 30.4123 54.4376 29.9914 54.2657C29.5705 54.0939 29.1876 53.8408 28.8646 53.521C28.2121 52.875 27.843 51.9963 27.8384 51.0782C27.8338 50.1601 28.1941 49.2777 28.8401 48.6253C29.486 47.9728 30.3647 47.6037 31.2828 47.5991H31.3175C32.2356 47.5991 33.1161 47.9638 33.7653 48.613C34.4145 49.2622 34.7792 50.1428 34.7792 51.0609C34.7792 51.979 34.4145 52.8595 33.7653 53.5087C33.1161 54.1579 32.2356 54.5226 31.3175 54.5226ZM31.3175 40.6756C30.8629 40.6779 30.4123 40.5906 29.9914 40.4187C29.5705 40.2468 29.1876 39.9938 28.8646 39.6739C28.2121 39.028 27.843 38.1493 27.8384 37.2312C27.8338 36.313 28.1941 35.4307 28.8401 34.7783C29.486 34.1258 30.3647 33.7567 31.2828 33.7521H31.3175C32.2356 33.7521 33.1161 34.1168 33.7653 34.766C34.4145 35.4152 34.7792 36.2957 34.7792 37.2138C34.7792 38.132 34.4145 39.0125 33.7653 39.6617C33.1161 40.3109 32.2356 40.6756 31.3175 40.6756ZM45.1645 54.5226C44.7099 54.5249 44.2593 54.4376 43.8384 54.2657C43.4175 54.0939 43.0347 53.8408 42.7116 53.521C42.0591 52.875 41.69 51.9963 41.6854 51.0782C41.6808 50.1601 42.0412 49.2777 42.6871 48.6253C43.3331 47.9728 44.2118 47.6037 45.1299 47.5991H45.1645C46.0826 47.5991 46.9631 47.9638 47.6123 48.613C48.2615 49.2622 48.6263 50.1428 48.6263 51.0609C48.6263 51.979 48.2615 52.8595 47.6123 53.5087C46.9631 54.1579 46.0826 54.5226 45.1645 54.5226ZM45.1645 40.6756C44.7099 40.6779 44.2593 40.5906 43.8384 40.4187C43.4175 40.2468 43.0347 39.9938 42.7116 39.6739C42.0591 39.028 41.69 38.1493 41.6854 37.2312C41.6808 36.313 42.0412 35.4307 42.6871 34.7783C43.3331 34.1258 44.2118 33.7567 45.1299 33.7521H45.1645C46.0826 33.7521 46.9631 34.1168 47.6123 34.766C48.2615 35.4152 48.6263 36.2957 48.6263 37.2138C48.6263 38.132 48.2615 39.0125 47.6123 39.6617C46.9631 40.3109 46.0826 40.6756 45.1645 40.6756Z" fill="black"/>
<path d="M62.4037 19.732V18.1742C62.605 16.7635 62.4751 15.3254 62.0243 13.9736C61.5736 12.6218 60.8144 11.3934 59.8068 10.3858C58.7992 9.37824 57.5709 8.61902 56.2191 8.16829C54.8673 7.71755 53.4291 7.58768 52.0184 7.78895H47.6912V2.59632C47.6912 1.90773 47.4177 1.24735 46.9308 0.760444C46.4439 0.27354 45.7835 0 45.0949 0C44.4063 0 43.7459 0.27354 43.259 0.760444C42.7721 1.24735 42.4986 1.90773 42.4986 2.59632V7.78895H19.9971V2.59632C19.9971 1.90773 19.7236 1.24735 19.2367 0.760444C18.7498 0.27354 18.0894 0 17.4008 0C16.7122 0 16.0519 0.27354 15.565 0.760444C15.0781 1.24735 14.8045 1.90773 14.8045 2.59632V7.78895H10.4773C9.06663 7.58768 7.62847 7.71755 6.27666 8.16829C4.92486 8.61902 3.69654 9.37824 2.68893 10.3858C1.68133 11.3934 0.922106 12.6218 0.471373 13.9736C0.0206401 15.3254 -0.10923 16.7635 0.0920428 18.1742V19.732C0.0920428 20.0075 0.201459 20.2716 0.39622 20.4664C0.590982 20.6611 0.855135 20.7705 1.13057 20.7705H61.3652C61.6406 20.7705 61.9047 20.6611 62.0995 20.4664C62.2943 20.2716 62.4037 20.0075 62.4037 19.732Z" fill="#FC581D"/>
</svg>
