<svg width="65" height="65" viewBox="0 0 65 65" fill="none" xmlns="http://www.w3.org/2000/svg">
<g clip-path="url(#clip0_43_11751)">
<path fill-rule="evenodd" clip-rule="evenodd" d="M39.2336 48.75L34.66 57.0282C33.9366 58.3374 32.2889 58.8124 30.9796 58.089C30.5981 57.8782 30.273 57.5784 30.0321 57.215L24.4199 48.75H13.5417C9.05443 48.75 5.41675 45.1123 5.41675 40.625V16.25C5.41675 11.7627 9.05443 8.125 13.5417 8.125H51.4584C55.9457 8.125 59.5834 11.7627 59.5834 16.25V40.625C59.5834 45.1123 55.9457 48.75 51.4584 48.75H39.2336Z" fill="#FC581D"/>
<path fill-rule="evenodd" clip-rule="evenodd" d="M16.2501 18.9584H40.6251C42.1209 18.9584 43.3334 20.1709 43.3334 21.6667C43.3334 23.1625 42.1209 24.375 40.6251 24.375H16.2501C14.7543 24.375 13.5417 23.1625 13.5417 21.6667C13.5417 20.1709 14.7543 18.9584 16.2501 18.9584ZM16.2501 29.7917H29.7917C31.2875 29.7917 32.5001 31.0043 32.5001 32.5C32.5001 33.9958 31.2875 35.2084 29.7917 35.2084H16.2501C14.7543 35.2084 13.5417 33.9958 13.5417 32.5C13.5417 31.0043 14.7543 29.7917 16.2501 29.7917Z" fill="black"/>
</g>
<defs>
<clipPath id="clip0_43_11751">
<rect width="65" height="65" fill="white"/>
</clipPath>
</defs>
</svg>
