<svg width="55" height="65" viewBox="0 0 55 65" fill="none" xmlns="http://www.w3.org/2000/svg">
<path fill-rule="evenodd" clip-rule="evenodd" d="M27.3684 65C12.2533 65 0 52.7468 0 37.6316C0 22.5164 12.2533 10.2632 27.3684 10.2632C42.4836 10.2632 54.7368 22.5164 54.7368 37.6316C54.7368 52.7468 42.4836 65 27.3684 65Z" fill="black"/>
<path fill-rule="evenodd" clip-rule="evenodd" d="M30.7897 10.4749C29.669 10.3351 28.5272 10.2632 27.3686 10.2632C26.2101 10.2632 25.0683 10.3351 23.9476 10.4749V6.84211H20.5265C18.6371 6.84211 17.1055 5.31045 17.1055 3.42105C17.1055 1.53166 18.6371 0 20.5265 0H34.2107C36.1001 0 37.6318 1.53166 37.6318 3.42105C37.6318 5.31045 36.1001 6.84211 34.2107 6.84211H30.7897V10.4749Z" fill="#FC581D"/>
<path fill-rule="evenodd" clip-rule="evenodd" d="M43.4814 15.5067L46.3059 12.6822C47.6419 11.3462 49.808 11.3462 51.144 12.6822C52.48 14.0182 52.48 16.1843 51.144 17.5203L48.4667 20.1976C47.0081 18.4345 45.3327 16.8572 43.4814 15.5067Z" fill="#FC581D"/>
<path fill-rule="evenodd" clip-rule="evenodd" d="M27.2421 18.8157H27.4952C28.389 18.8157 29.1321 19.5038 29.2007 20.395L30.648 39.2108C30.7205 40.1527 30.0156 40.975 29.0737 41.0475C29.0301 41.0508 28.9863 41.0525 28.9425 41.0525H25.7948C24.8501 41.0525 24.0842 40.2867 24.0842 39.342C24.0842 39.2982 24.0859 39.2544 24.0893 39.2108L25.5366 20.395C25.6052 19.5038 26.3483 18.8157 27.2421 18.8157Z" fill="white"/>
</svg>
