<svg width="51" height="65" viewBox="0 0 51 65" fill="none" xmlns="http://www.w3.org/2000/svg">
<path d="M3.61133 18.0557H46.9446L43.7182 59.9988C43.5011 62.8209 41.1479 65 38.3175 65H12.2384C9.40803 65 7.05481 62.8209 6.83772 59.9988L3.61133 18.0557ZM10.8335 25.2779L12.4744 40.0453L38.1038 39.8447L39.7224 25.2779H10.8335Z" fill="black"/>
<path fill-rule="evenodd" clip-rule="evenodd" d="M32.4999 5.41666V1.80555C32.4999 0.808373 31.6916 0 30.6944 0H19.8611C18.8639 0 18.0555 0.808373 18.0555 1.80555V5.41666H1.80555C0.808373 5.41666 0 6.22503 0 7.22221V9.02776C0 10.0249 0.808373 10.8333 1.80555 10.8333H48.7499C49.7471 10.8333 50.5555 10.0249 50.5555 9.02776V7.22221C50.5555 6.22503 49.7471 5.41666 48.7499 5.41666H32.4999Z" fill="#FC581D"/>
</svg>
