<svg width="65" height="49" viewBox="0 0 65 49" fill="none" xmlns="http://www.w3.org/2000/svg">
<path d="M48.7498 29.7917C44.2625 29.7917 40.6248 26.154 40.6248 21.6667C40.6248 17.1794 44.2625 13.5417 48.7498 13.5417C53.2371 13.5417 56.8748 17.1794 56.8748 21.6667C56.8748 26.154 53.2371 29.7917 48.7498 29.7917ZM24.3748 21.6667C18.3918 21.6667 13.5415 16.8164 13.5415 10.8333C13.5415 4.85025 18.3918 0 24.3748 0C30.3579 0 35.2082 4.85025 35.2082 10.8333C35.2082 16.8164 30.3579 21.6667 24.3748 21.6667Z" fill="#FC581D"/>
<path d="M47.6699 32.5016C56.8959 32.6024 64.429 37.267 64.9959 47.1249C65.0188 47.522 64.9959 48.7499 63.5265 48.7499H53.0833C53.0833 42.6536 51.0691 37.0278 47.6699 32.5016ZM0.00176498 46.5811C1.05153 33.6551 11.5427 27.0833 24.3299 27.0833C37.297 27.0833 47.9507 33.294 48.7443 46.5833C48.776 47.1127 48.7444 48.7499 46.7098 48.7499C36.6739 48.7499 21.7607 48.7499 1.97032 48.7499C1.2911 48.7499 -0.0554172 47.2852 0.00176498 46.5811Z" fill="black"/>
</svg>
